<?xml version="1.0" encoding="UTF-8" standalone="no"?>
<svg viewBox="0 0 138 138" version="1.1"
  xmlns="http://www.w3.org/2000/svg" xmlns:xlink="http://www.w3.org/1999/xlink" xml:space="preserve"
  xmlns:serif="http://www.serif.com/"
  style="fill-rule:evenodd;clip-rule:evenodd;stroke-linejoin:round;stroke-miterlimit:2;"><path d="M118.4,82.4l-36,35.9c-0.1,0.1 -0.3,0.1 -0.6,0.1l-49.1,-13.1c-0.1,0 -0.3,-0.1 -0.4,-0.4l-13.1,-49c0,-0.1 0,-0.4 0.1,-0.6l36,-35.9c0.1,-0.1 0.3,-0.1 0.6,-0.1l49.1,13.2c0.1,-0 0.3,0.1 0.4,0.4l13.1,49c0.2,0.2 0.1,0.4 -0.1,0.5Zm-47.149,-45.568l-17.576,-0l0,18.21l-18.21,-0l0,17.576l18.21,-0l0,18.21l17.576,-0l0,-18.21l18.21,-0l0,-17.576l-18.21,-0l0,-18.21Z" style="fill:#010101;"/></svg>
