<?xml version="1.0" encoding="UTF-8"?><svg id="Layer_1" xmlns="http://www.w3.org/2000/svg" xmlns:xlink="http://www.w3.org/1999/xlink" viewBox="0 0 480 360" width="1920"><defs><style>.cls-1{opacity:.945;}.cls-1,.cls-2,.cls-3,.cls-4,.cls-5,.cls-6,.cls-7,.cls-8,.cls-9,.cls-10,.cls-11,.cls-12,.cls-13,.cls-14,.cls-15,.cls-16,.cls-17,.cls-18,.cls-19,.cls-20,.cls-21,.cls-22,.cls-23,.cls-24,.cls-25,.cls-26,.cls-27,.cls-28,.cls-29,.cls-30,.cls-31,.cls-32,.cls-33,.cls-34,.cls-35,.cls-36,.cls-37,.cls-38,.cls-39,.cls-40,.cls-41,.cls-42,.cls-43,.cls-44,.cls-45,.cls-46,.cls-47,.cls-48,.cls-49,.cls-50,.cls-51,.cls-52,.cls-53,.cls-54,.cls-55,.cls-56,.cls-57,.cls-58,.cls-59,.cls-60,.cls-61,.cls-62,.cls-63,.cls-64,.cls-65,.cls-66,.cls-67,.cls-68,.cls-69,.cls-70,.cls-71,.cls-72,.cls-73,.cls-74,.cls-75,.cls-76,.cls-77,.cls-78,.cls-79,.cls-80,.cls-81,.cls-82,.cls-83,.cls-84,.cls-85,.cls-86,.cls-87,.cls-88,.cls-89,.cls-90,.cls-91,.cls-92,.cls-93,.cls-94,.cls-95,.cls-96,.cls-97,.cls-98,.cls-99,.cls-100,.cls-101,.cls-102,.cls-103,.cls-104,.cls-105,.cls-106,.cls-107,.cls-108,.cls-109,.cls-110,.cls-111,.cls-112,.cls-113,.cls-114,.cls-115,.cls-116,.cls-117,.cls-118,.cls-119,.cls-120,.cls-121,.cls-122,.cls-123,.cls-124{fill:none;stroke:#fff;stroke-miterlimit:10;stroke-width:.25px;}.cls-2{opacity:.604;}.cls-3{opacity:.738;}.cls-4{opacity:.567;}.cls-5{opacity:.238;}.cls-6{opacity:.384;}.cls-7{opacity:.518;}.cls-8{opacity:.939;}.cls-125{fill:url(#linear-gradient);}.cls-9{opacity:.287;}.cls-10{opacity:.835;}.cls-11{opacity:.53;}.cls-12{opacity:.195;}.cls-13{opacity:.098;}.cls-14{opacity:.47;}.cls-15{opacity:.97;}.cls-126{mask:url(#mask);}.cls-16{opacity:.14;}.cls-17{opacity:.78;}.cls-18{opacity:.823;}.cls-19{opacity:.445;}.cls-20{opacity:.963;}.cls-21{opacity:.957;}.cls-127{filter:url(#luminosity-invert);}.cls-22{opacity:.756;}.cls-23{opacity:.951;}.cls-24{opacity:.213;}.cls-25{opacity:.921;}.cls-26{opacity:.226;}.cls-27{opacity:.805;}.cls-28{opacity:.726;}.cls-29{opacity:.146;}.cls-30{opacity:.988;}.cls-31{opacity:.915;}.cls-32{opacity:.616;}.cls-33{opacity:.024;}.cls-34{opacity:.689;}.cls-35{opacity:.018;}.cls-36{opacity:.177;}.cls-37{opacity:.768;}.cls-38{opacity:.543;}.cls-39{opacity:0;}.cls-40{opacity:.421;}.cls-41{opacity:.494;}.cls-42{opacity:.652;}.cls-43{opacity:.665;}.cls-44{opacity:.262;}.cls-45{opacity:.012;}.cls-46{opacity:.457;}.cls-47{opacity:.409;}.cls-48{opacity:.055;}.cls-49{opacity:.89;}.cls-50{opacity:.116;}.cls-51{opacity:.628;}.cls-52{opacity:.866;}.cls-53{opacity:.128;}.cls-54{opacity:.75;}.cls-55{opacity:.079;}.cls-56{opacity:.829;}.cls-57{opacity:.037;}.cls-58{opacity:.159;}.cls-59{opacity:.189;}.cls-60{opacity:.848;}.cls-61{opacity:.067;}.cls-62{opacity:.134;}.cls-63{opacity:.713;}.cls-64{opacity:.396;}.cls-65{opacity:.372;}.cls-66{opacity:.872;}.cls-67{opacity:.091;}.cls-68{opacity:.701;}.cls-69{opacity:.006;}.cls-70{opacity:.244;}.cls-71{opacity:.799;}.cls-72{opacity:.11;}.cls-73{opacity:.762;}.cls-74{opacity:.207;}.cls-75{opacity:.335;}.cls-76{opacity:.982;}.cls-77{opacity:.506;}.cls-78{opacity:.165;}.cls-79{opacity:.854;}.cls-80{opacity:.049;}.cls-81{opacity:.591;}.cls-82{opacity:.927;}.cls-83{opacity:.817;}.cls-84{opacity:.976;}.cls-85{opacity:.274;}.cls-86{opacity:.902;}.cls-87{opacity:.884;}.cls-88{opacity:.073;}.cls-89{opacity:.482;}.cls-90{opacity:.579;}.cls-91{opacity:.36;}.cls-92{opacity:.811;}.cls-93{opacity:.933;}.cls-94{opacity:.201;}.cls-95{opacity:.03;}.cls-96{opacity:.299;}.cls-97{opacity:.787;}.cls-98{opacity:.774;}.cls-99{opacity:.311;}.cls-100{opacity:.104;}.cls-101{opacity:.232;}.cls-102{opacity:.555;}.cls-103{opacity:.348;}.cls-104{opacity:.896;}.cls-105{opacity:.061;}.cls-106{opacity:.64;}.cls-107{opacity:.323;}.cls-108{opacity:.22;}.cls-109{opacity:.043;}.cls-110{opacity:.25;}.cls-111{opacity:.793;}.cls-112{opacity:.909;}.cls-113{opacity:.183;}.cls-114{opacity:.841;}.cls-115{opacity:.994;}.cls-116{opacity:.677;}.cls-117{opacity:.085;}.cls-119{opacity:.433;}.cls-120{opacity:.86;}.cls-121{opacity:.878;}.cls-122{opacity:.122;}.cls-123{opacity:.152;}.cls-124{opacity:.171;}</style><filter id="luminosity-invert" color-interpolation-filters="sRGB" filterUnits="userSpaceOnUse"><feColorMatrix values="-1 0 0 0 1 0 -1 0 0 1 0 0 -1 0 1 0 0 0 1 0"/></filter><linearGradient id="linear-gradient" x1=".5" y1="180" x2="479.5" y2="180" gradientUnits="userSpaceOnUse"><stop offset="0" stop-color="#000"/><stop offset="1" stop-color="#fff"/></linearGradient><mask id="mask" x=".5" y=".5" width="479" height="359" maskUnits="userSpaceOnUse"><g class="cls-127"><rect class="cls-125" x=".5" y=".5" width="479" height="359"/></g></mask></defs><g class="cls-126"><g><polyline class="cls-118" points="-56.807 95.315 -28.158 2.275 76.256 -11.293 125.011 -13.15 140.493 -6.854 158.894 -15.675 200.235 -22.058 304.399 -36.466 324.874 -51.755 349.81 -44.394 424.476 -86.518 460.597 -52.35"/><polyline class="cls-115" points="-56.519 95.82 -34.998 30.811 -26.517 4.707 -19.811 3.782 44.503 -4.176 69.504 -7.819 77.374 -8.731 86.374 -8.964 125.92 -10.746 141.365 -4.734 159.734 -13.498 200.921 -20.049 245.737 -26.471 270.132 -29.578 304.272 -34.926 324.78 -49.659 337.129 -45.999 349.661 -42.422 371.384 -54.444 403.751 -72.87 424.191 -84.209 460.509 -51.073"/><polyline class="cls-30" points="-56.231 96.324 -33.689 32.886 -24.875 7.139 -18.203 6.164 45.941 -1.371 70.667 -5.374 78.493 -6.169 87.44 -6.29 126.828 -8.343 142.236 -2.613 160.574 -11.321 201.607 -18.04 246.253 -24.663 270.554 -27.489 304.145 -33.387 324.686 -47.563 337.001 -43.9 349.512 -40.451 371.249 -52.247 403.457 -70.748 423.906 -81.9 460.421 -49.796"/><polyline class="cls-76" points="-55.943 96.829 -32.38 34.961 -23.234 9.572 -16.595 8.547 47.378 1.433 71.829 -2.928 79.611 -3.606 88.506 -3.615 127.736 -5.94 143.108 -.493 161.414 -9.143 202.293 -16.032 246.769 -22.854 270.976 -25.399 304.018 -31.848 324.591 -45.466 336.872 -41.8 349.362 -38.48 371.114 -50.05 403.163 -68.626 423.621 -79.591 460.333 -48.52"/><polyline class="cls-84" points="-55.655 97.333 -31.072 37.036 -21.593 12.004 -14.987 10.93 48.816 4.237 72.991 -.483 80.729 -1.044 89.571 -.941 128.644 -3.536 143.98 1.627 162.255 -6.966 202.98 -14.023 247.285 -21.045 271.398 -23.31 303.891 -30.308 324.497 -43.37 336.744 -39.7 349.213 -36.508 370.979 -47.853 402.869 -66.505 423.337 -77.281 460.246 -47.243"/><polyline class="cls-15" points="-55.367 97.838 -29.763 39.11 -19.951 14.436 -13.378 13.312 50.253 7.042 74.154 1.963 81.847 1.518 90.637 1.733 129.553 -1.133 144.851 3.748 163.095 -4.789 203.666 -12.014 247.801 -19.236 271.819 -21.22 303.765 -28.769 324.403 -41.273 336.616 -37.6 349.064 -34.537 370.843 -45.656 402.576 -64.383 423.052 -74.972 460.158 -45.966"/><polyline class="cls-20" points="-55.079 98.342 -28.454 41.185 -18.31 16.868 -11.77 15.695 51.691 9.846 75.316 4.408 82.966 4.08 91.703 4.407 130.461 1.27 145.723 5.868 163.935 -2.612 204.352 -10.005 248.317 -17.427 272.241 -19.131 303.638 -27.23 324.309 -39.177 336.488 -35.5 348.915 -32.566 370.708 -43.459 402.282 -62.261 422.767 -72.663 460.07 -44.689"/><polyline class="cls-21" points="-54.791 98.847 -27.145 43.26 -16.668 19.301 -10.162 18.077 53.128 12.651 76.479 6.854 84.084 6.642 92.768 7.081 131.369 3.674 146.595 7.989 164.775 -.434 205.038 -7.996 248.832 -15.618 272.663 -17.041 303.511 -25.691 324.215 -37.081 336.359 -33.4 348.766 -30.595 370.573 -41.262 401.988 -60.139 422.482 -70.354 459.983 -43.412"/><polyline class="cls-23" points="-54.503 99.351 -25.837 45.335 -15.027 21.733 -8.554 20.46 54.565 15.455 77.641 9.299 85.202 9.204 93.834 9.755 132.277 6.077 147.466 10.109 165.615 1.743 205.724 -5.988 249.348 -13.809 273.084 -14.952 303.384 -24.151 324.12 -34.984 336.231 -31.3 348.617 -28.623 370.438 -39.065 401.694 -58.018 422.197 -68.045 459.895 -42.135"/><polyline class="cls-1" points="-54.215 99.856 -24.528 47.409 -13.385 24.165 -6.946 22.843 56.003 18.259 78.803 11.745 86.32 11.767 94.9 12.429 133.186 8.48 148.338 12.229 166.456 3.92 206.41 -3.979 249.864 -12 273.506 -12.863 303.257 -22.612 324.026 -32.888 336.103 -29.2 348.467 -26.652 370.303 -36.868 401.401 -55.896 421.912 -65.735 459.807 -40.859"/><polyline class="cls-8" points="-53.927 100.36 -23.219 49.484 -11.744 26.598 -5.338 25.225 57.44 21.064 79.966 14.19 87.439 14.329 95.965 15.103 134.094 10.884 149.21 14.35 167.296 6.097 207.097 -1.97 250.38 -10.191 273.928 -10.773 303.13 -21.073 323.932 -30.792 335.975 -27.1 348.318 -24.681 370.168 -34.671 401.107 -53.774 421.627 -63.426 459.719 -39.582"/><polyline class="cls-93" points="-53.639 100.865 -21.911 51.559 -10.103 29.03 -3.729 27.608 58.878 23.868 81.128 16.636 88.557 16.891 97.031 17.777 135.002 13.287 150.081 16.47 168.136 8.274 207.783 .039 250.896 -8.382 274.349 -8.684 303.003 -19.534 323.838 -28.695 335.847 -25 348.169 -22.709 370.033 -32.474 400.813 -51.652 421.342 -61.117 459.632 -38.305"/><polyline class="cls-82" points="-53.351 101.369 -20.602 53.634 -8.461 31.462 -2.121 29.991 60.315 26.673 82.291 19.081 89.675 19.453 98.096 20.451 135.91 15.69 150.953 18.591 168.976 10.452 208.469 2.048 251.412 -6.573 274.771 -6.594 302.876 -17.994 323.744 -26.599 335.718 -22.9 348.02 -20.738 369.898 -30.277 400.519 -49.531 421.058 -58.808 459.544 -37.028"/><polyline class="cls-25" points="-53.063 101.874 -19.293 55.708 -6.82 33.894 -.513 32.373 61.752 29.477 83.453 21.527 90.793 22.015 99.162 23.125 136.819 18.094 151.825 20.711 169.817 12.629 209.155 4.057 251.927 -4.764 275.193 -4.505 302.749 -16.455 323.649 -24.502 335.59 -20.8 347.871 -18.767 369.762 -28.08 400.226 -47.409 420.773 -56.498 459.456 -35.751"/><polyline class="cls-31" points="-52.775 102.378 -17.985 57.783 -5.178 36.327 1.095 34.756 63.19 32.281 84.615 23.972 91.912 24.578 100.228 25.8 137.727 20.497 152.696 22.831 170.657 14.806 209.841 6.065 252.443 -2.955 275.614 -2.415 302.622 -14.916 323.555 -22.406 335.462 -18.7 347.722 -16.796 369.627 -25.883 399.932 -45.287 420.488 -54.189 459.368 -34.474"/><polyline class="cls-112" points="-52.487 102.883 -16.676 59.858 -3.537 38.759 2.703 37.138 64.627 35.086 85.778 26.418 93.03 27.14 101.293 28.474 138.635 22.9 153.568 24.952 171.497 16.983 210.527 8.074 252.959 -1.146 276.036 -.326 302.496 -13.377 323.461 -20.31 335.334 -16.6 347.573 -14.824 369.492 -23.686 399.638 -43.165 420.203 -51.88 459.281 -33.198"/><polyline class="cls-86" points="-52.199 103.387 -15.367 61.933 -1.895 41.191 4.311 39.521 66.065 37.89 86.94 28.863 94.148 29.702 102.359 31.148 139.543 25.304 154.44 27.072 172.337 19.16 211.214 10.083 253.475 .663 276.458 1.764 302.369 -11.837 323.367 -18.213 335.206 -14.5 347.423 -12.853 369.357 -21.489 399.344 -41.044 419.918 -49.571 459.193 -31.921"/><polyline class="cls-104" points="-51.911 103.892 -14.059 64.007 -.254 43.624 5.92 41.904 67.502 40.694 88.103 31.309 95.266 32.264 103.425 33.822 140.451 27.707 155.311 29.193 173.177 21.338 211.9 12.092 253.991 2.472 276.879 3.853 302.242 -10.298 323.273 -16.117 335.077 -12.4 347.274 -10.882 369.222 -19.292 399.05 -38.922 419.633 -47.261 459.105 -30.644"/><polyline class="cls-49" points="-51.623 104.396 -12.75 66.082 1.388 46.056 7.528 44.286 68.939 43.499 89.265 33.754 96.385 34.826 104.49 36.496 141.36 30.11 156.183 31.313 174.018 23.515 212.586 14.101 254.507 4.281 277.301 5.943 302.115 -8.759 323.178 -14.021 334.949 -10.3 347.125 -8.91 369.087 -17.095 398.757 -36.8 419.348 -44.952 459.018 -29.367"/><polyline class="cls-87" points="-51.335 104.901 -11.441 68.157 3.029 48.488 9.136 46.669 70.377 46.303 90.427 36.199 97.503 37.388 105.556 39.17 142.268 32.513 157.055 33.433 174.858 25.692 213.272 16.109 255.022 6.09 277.723 8.032 301.988 -7.22 323.084 -11.924 334.821 -8.2 346.976 -6.939 368.952 -14.898 398.463 -34.678 419.064 -42.643 458.93 -28.09"/><polyline class="cls-121" points="-51.047 105.405 -10.133 70.232 4.67 50.92 10.744 49.052 71.814 49.108 91.59 38.645 98.621 39.951 106.622 41.844 143.176 34.917 157.926 35.554 175.698 27.869 213.958 18.118 255.538 7.899 278.145 10.121 301.861 -5.68 322.99 -9.828 334.693 -6.1 346.827 -4.968 368.817 -12.701 398.169 -32.557 418.779 -40.334 458.842 -26.813"/><polyline class="cls-66" points="-50.759 105.91 -8.824 72.306 6.312 53.353 12.352 51.434 73.252 51.912 92.752 41.09 99.739 42.513 107.687 44.518 144.084 37.32 158.798 37.674 176.538 30.047 214.645 20.127 256.054 9.708 278.566 12.211 301.734 -4.141 322.896 -7.731 334.564 -4 346.678 -2.997 368.682 -10.504 397.875 -30.435 418.494 -38.024 458.754 -25.537"/><polyline class="cls-52" points="-50.471 106.414 -7.515 74.381 7.953 55.785 13.961 53.817 74.689 54.716 93.915 43.536 100.858 45.075 108.753 47.192 144.993 39.723 159.67 39.795 177.379 32.224 215.331 22.136 256.57 11.517 278.988 14.3 301.607 -2.602 322.802 -5.635 334.436 -1.9 346.528 -1.025 368.546 -8.307 397.582 -28.313 418.209 -35.715 458.667 -24.26"/><polyline class="cls-120" points="-50.183 106.919 -6.206 76.456 9.595 58.217 15.569 56.199 76.127 57.521 95.077 45.981 101.976 47.637 109.818 49.866 145.901 42.127 160.541 41.915 178.219 34.401 216.017 24.145 257.086 13.325 279.41 16.39 301.48 -1.063 322.708 -3.539 334.308 .2 346.379 .946 368.411 -6.11 397.288 -26.191 417.924 -33.406 458.579 -22.983"/><polyline class="cls-79" points="-49.896 107.423 -4.898 78.531 11.236 60.649 17.177 58.582 77.564 60.325 96.239 48.427 103.094 50.199 110.884 52.54 146.809 44.53 161.413 44.035 179.059 36.578 216.703 26.154 257.602 15.134 279.831 18.479 301.354 .477 322.613 -1.442 334.18 2.3 346.23 2.917 368.276 -3.913 396.994 -24.07 417.639 -31.097 458.491 -21.706"/><polyline class="cls-60" points="-49.608 107.928 -3.589 80.605 12.878 63.082 18.785 60.965 79.001 63.13 97.402 50.872 104.212 52.762 111.95 55.215 147.717 46.933 162.285 46.156 179.899 38.755 217.389 28.162 258.117 16.943 280.253 20.569 301.227 2.016 322.519 .654 334.052 4.4 346.081 4.889 368.141 -1.716 396.7 -21.948 417.354 -28.787 458.404 -20.429"/><polyline class="cls-114" points="-49.32 108.432 -2.28 82.68 14.519 65.514 20.393 63.347 80.439 65.934 98.564 53.318 105.331 55.324 113.015 57.889 148.626 49.337 163.156 48.276 180.739 40.933 218.075 30.171 258.633 18.752 280.675 22.658 301.1 3.555 322.425 2.751 333.923 6.5 345.932 6.86 368.006 .481 396.407 -19.826 417.07 -26.478 458.316 -19.152"/><polyline class="cls-10" points="-49.032 108.937 -.972 84.755 16.16 67.946 22.001 65.73 81.876 68.738 99.726 55.763 106.449 57.886 114.081 60.563 149.534 51.74 164.028 50.397 181.58 43.11 218.762 32.18 259.149 20.561 281.096 24.748 300.973 5.094 322.331 4.847 333.795 8.6 345.783 8.831 367.871 2.678 396.113 -17.704 416.785 -24.169 458.228 -17.876"/><polyline class="cls-56" points="-48.744 109.441 .337 86.83 17.802 70.379 23.61 68.113 83.314 71.543 100.889 58.209 107.567 60.448 115.147 63.237 150.442 54.143 164.9 52.517 182.42 45.287 219.448 34.189 259.665 22.37 281.518 26.837 300.846 6.634 322.237 6.943 333.667 10.7 345.634 10.802 367.736 4.875 395.819 -15.583 416.5 -21.86 458.14 -16.599"/><polyline class="cls-18" points="-48.456 109.946 1.646 88.904 19.443 72.811 25.218 70.495 84.751 74.347 102.051 60.654 108.685 63.01 116.212 65.911 151.35 56.547 165.771 54.637 183.26 47.464 220.134 36.198 260.181 24.179 281.94 28.927 300.719 8.173 322.142 9.04 333.539 12.8 345.484 12.774 367.601 7.072 395.525 -13.461 416.215 -19.55 458.053 -15.322"/><polyline class="cls-83" points="-48.168 110.45 2.954 90.979 21.085 75.243 26.826 72.878 86.188 77.152 103.214 63.1 109.804 65.572 117.278 68.585 152.259 58.95 166.643 56.758 184.1 49.641 220.82 38.206 260.697 25.988 282.361 31.016 300.592 9.712 322.048 11.136 333.41 14.9 345.335 14.745 367.465 9.269 395.231 -11.339 415.93 -17.241 457.965 -14.045"/><polyline class="cls-92" points="-47.88 110.955 4.263 93.054 22.726 77.675 28.434 75.26 87.626 79.956 104.376 65.545 110.922 68.135 118.344 71.259 153.167 61.353 167.515 58.878 184.941 51.819 221.506 40.215 261.212 27.797 282.783 33.105 300.465 11.252 321.954 13.232 333.282 17 345.186 16.716 367.33 11.466 394.938 -9.217 415.645 -14.932 457.877 -12.768"/><polyline class="cls-27" points="-47.592 111.459 5.572 95.129 24.368 80.108 30.042 77.643 89.063 82.76 105.538 67.991 112.04 70.697 119.409 73.933 154.075 63.757 168.386 60.999 185.781 53.996 222.192 42.224 261.728 29.606 283.205 35.195 300.338 12.791 321.86 15.329 333.154 19.1 345.037 18.688 367.195 13.663 394.644 -7.096 415.36 -12.623 457.789 -11.491"/><polyline class="cls-71" points="-47.304 111.964 6.88 97.203 26.009 82.54 31.65 80.026 90.501 85.565 106.701 70.436 113.158 73.259 120.475 76.607 154.983 66.16 169.258 63.119 186.621 56.173 222.879 44.233 262.244 31.415 283.626 37.284 300.211 14.33 321.766 17.425 333.026 21.2 344.888 20.659 367.06 15.86 394.35 -4.974 415.075 -10.313 457.702 -10.215"/><polyline class="cls-111" points="-47.016 112.468 8.189 99.278 27.651 84.972 33.259 82.408 91.938 88.369 107.863 72.882 114.277 75.821 121.541 79.281 155.892 68.563 170.13 65.239 187.461 58.35 223.565 46.242 262.76 33.224 284.048 39.374 300.085 15.869 321.671 19.522 332.898 23.3 344.739 22.63 366.925 18.057 394.056 -2.852 414.791 -8.004 457.614 -8.938"/><polyline class="cls-97" points="-46.728 112.973 9.498 101.353 29.292 87.404 34.867 84.791 93.376 91.174 109.026 75.327 115.395 78.383 122.606 81.955 156.8 70.967 171.001 67.36 188.301 60.528 224.251 48.251 263.276 35.033 284.47 41.463 299.958 17.409 321.577 21.618 332.769 25.4 344.589 24.601 366.79 20.254 393.763 -.73 414.506 -5.695 457.526 -7.661"/><polyline class="cls-17" points="-46.44 113.477 10.806 103.428 30.933 89.837 36.475 87.173 94.813 93.978 110.188 77.773 116.513 80.946 123.672 84.63 157.708 73.37 171.873 69.48 189.142 62.705 224.937 50.259 263.792 36.842 284.892 43.553 299.831 18.948 321.483 23.714 332.641 27.5 344.44 26.573 366.655 22.451 393.469 1.391 414.221 -3.386 457.439 -6.384"/><polyline class="cls-98" points="-46.152 113.982 12.115 105.502 32.575 92.269 38.083 89.556 96.25 96.782 111.35 80.218 117.631 83.508 124.737 87.304 158.616 75.773 172.745 71.601 189.982 64.882 225.623 52.268 264.307 38.651 285.313 45.642 299.704 20.487 321.389 25.811 332.513 29.6 344.291 28.544 366.52 24.648 393.175 3.513 413.936 -1.076 457.351 -5.107"/><polyline class="cls-37" points="-45.864 114.486 13.424 107.577 34.216 94.701 39.691 91.939 97.688 99.587 112.513 82.664 118.75 86.07 125.803 89.978 159.524 78.177 173.616 73.721 190.822 67.059 226.31 54.277 264.823 40.46 285.735 47.732 299.577 22.026 321.295 27.907 332.385 31.7 344.142 30.515 366.385 26.845 392.881 5.635 413.651 1.233 457.263 -3.83"/><polyline class="cls-73" points="-45.576 114.991 14.732 109.652 35.858 97.134 41.299 94.321 99.125 102.391 113.675 85.109 119.868 88.632 126.869 92.652 160.433 80.58 174.488 75.841 191.662 69.236 226.996 56.286 265.339 42.269 286.157 49.821 299.45 23.566 321.2 30.003 332.256 33.8 343.993 32.487 366.249 29.042 392.588 7.757 413.366 3.542 457.175 -2.554"/><polyline class="cls-22" points="-45.288 115.495 16.041 111.727 37.499 99.566 42.908 96.704 100.563 105.196 114.838 87.555 120.986 91.194 127.934 95.326 161.341 82.983 175.36 77.962 192.503 71.414 227.682 58.295 265.855 44.078 286.578 51.911 299.323 25.105 321.106 32.1 332.128 35.9 343.844 34.458 366.114 31.239 392.294 9.878 413.081 5.851 457.088 -1.277"/><polyline class="cls-54" points="-45 116 17.35 113.801 44.516 99.087 102 108 116 90 129 98 266.371 45.887 287 54 299.196 26.644 332 38 365.979 33.436 392 12 457 0"/><polyline class="cls-3" points="-45.191 119.729 16.825 116.259 45.786 101.047 102.337 110.157 117.683 91.829 132.244 99.707 266.289 47.67 287.992 55.635 300.521 28.356 332.829 39.518 366.931 34.254 393.122 13.585 457.366 0"/><polyline class="cls-28" points="-45.382 123.457 16.301 118.716 47.056 103.007 102.674 112.314 119.366 93.659 135.488 101.415 266.206 49.453 288.983 57.271 301.847 30.067 333.658 41.035 367.883 35.073 394.244 15.171 457.732 0"/><polyline class="cls-63" points="-45.573 127.186 15.776 121.173 48.326 104.967 103.012 114.471 121.049 95.488 138.732 103.122 266.124 51.236 289.975 58.906 303.172 31.779 334.486 42.553 368.834 35.892 395.366 16.756 458.098 0"/><polyline class="cls-68" points="-45.764 130.914 15.252 123.63 49.596 106.927 103.349 116.627 122.732 97.317 141.976 104.829 266.042 53.02 290.966 60.541 304.497 33.491 335.315 44.07 369.786 36.71 396.488 18.341 458.463 0"/><polyline class="cls-34" points="-45.955 134.643 14.727 126.087 50.866 108.887 103.686 118.784 124.415 99.146 145.22 106.537 265.96 54.803 291.958 62.176 305.822 35.202 336.144 45.588 370.738 37.529 397.61 19.927 458.829 0"/><polyline class="cls-116" points="-46.146 138.372 14.203 128.544 52.135 110.847 104.023 120.941 126.098 100.976 148.463 108.244 265.878 56.586 292.949 63.812 307.147 36.914 336.973 47.105 371.69 38.347 398.732 21.512 459.195 0"/><polyline class="cls-43" points="-46.337 142.1 13.678 131.001 53.405 112.808 104.361 123.098 127.78 102.805 151.707 109.951 265.795 58.369 293.941 65.447 308.472 38.626 337.801 48.623 372.641 39.166 399.854 23.098 459.561 0"/><polyline class="cls-42" points="-46.528 145.829 13.153 133.458 54.675 114.768 104.698 125.255 129.463 104.634 154.951 111.659 265.713 60.153 294.932 67.082 309.798 40.338 338.63 50.14 373.593 39.985 400.976 24.683 459.927 0"/><polyline class="cls-106" points="-46.719 149.558 12.629 135.915 55.945 116.728 105.035 127.412 131.146 106.463 158.195 113.366 265.631 61.936 295.924 68.717 311.123 42.049 339.459 51.658 374.545 40.803 402.098 26.268 460.293 0"/><polyline class="cls-51" points="-46.909 153.286 12.104 138.372 57.215 118.688 105.372 129.569 132.829 108.293 161.439 115.073 265.549 63.719 296.915 70.353 312.448 43.761 340.288 53.175 375.496 41.622 403.22 27.854 460.659 0"/><polyline class="cls-32" points="-47.1 157.015 11.58 140.829 58.485 120.648 105.71 131.725 134.512 110.122 164.683 116.78 265.466 65.502 297.907 71.988 313.773 45.473 341.116 54.693 376.448 42.441 404.341 29.439 461.024 0"/><polyline class="cls-2" points="-47.291 160.743 11.055 143.286 59.755 122.608 106.047 133.882 136.195 111.951 167.927 118.488 265.384 67.286 298.899 73.623 315.098 47.184 341.945 56.21 377.4 43.259 405.463 31.024 461.39 0"/><polyline class="cls-81" points="-47.482 164.472 10.531 145.744 61.025 124.568 106.384 136.039 137.878 113.78 171.171 120.195 265.302 69.069 299.89 75.259 316.423 48.896 342.774 57.728 378.352 44.078 406.585 32.61 461.756 0"/><polyline class="cls-90" points="-47.673 168.201 10.006 148.201 62.295 126.529 106.721 138.196 139.561 115.61 174.415 121.902 265.22 70.852 300.882 76.894 317.749 50.608 343.603 59.245 379.303 44.897 407.707 34.195 462.122 0"/><polyline class="cls-4" points="-47.864 171.929 9.482 150.658 63.565 128.489 107.058 140.353 141.244 117.439 177.659 123.61 265.138 72.635 301.873 78.529 319.074 52.319 344.431 60.763 380.255 45.715 408.829 35.78 462.488 0"/><polyline class="cls-102" points="-48.055 175.658 8.957 153.115 64.835 130.449 107.396 142.51 142.927 119.268 180.902 125.317 265.055 74.419 302.865 80.164 320.399 54.031 345.26 62.28 381.207 46.534 409.951 37.366 462.854 0"/><polyline class="cls-38" points="-48.246 179.387 8.433 155.572 66.105 132.409 107.733 144.667 144.61 121.098 184.146 127.024 264.973 76.202 303.856 81.8 321.724 55.743 346.089 63.798 382.159 47.353 411.073 38.951 463.22 0"/><polyline class="cls-11" points="-48.437 183.115 7.908 158.029 67.375 134.369 108.07 146.823 146.293 122.927 187.39 128.732 264.891 77.985 304.848 83.435 323.049 57.454 346.918 65.315 383.11 48.171 412.195 40.537 463.585 0"/><polyline class="cls-7" points="-48.628 186.844 7.383 160.486 68.645 136.329 108.407 148.98 147.976 124.756 190.634 130.439 264.809 79.768 305.839 85.07 324.374 59.166 347.746 66.833 384.062 48.99 413.317 42.122 463.951 0"/><polyline class="cls-77" points="-48.819 190.572 6.859 162.943 69.915 138.289 108.745 151.137 149.659 126.585 193.878 132.146 264.727 81.552 306.831 86.705 325.7 60.878 348.575 68.35 385.014 49.808 414.439 43.707 464.317 0"/><polyline class="cls-41" points="-49.01 194.301 6.334 165.4 71.185 140.25 109.082 153.294 151.341 128.415 197.122 133.854 264.644 83.335 307.822 88.341 327.025 62.589 349.404 69.868 385.965 50.627 415.561 45.293 464.683 0"/><polyline class="cls-89" points="-49.201 198.03 5.81 167.857 72.455 142.21 109.419 155.451 153.024 130.244 200.366 135.561 264.562 85.118 308.814 89.976 328.35 64.301 350.233 71.386 386.917 51.446 416.683 46.878 465.049 0"/><polyline class="cls-14" points="-49.392 201.758 5.285 170.314 73.725 144.17 109.756 157.608 154.707 132.073 203.61 137.268 264.48 86.901 309.806 91.611 329.675 66.013 351.062 72.903 387.869 52.264 417.805 48.463 465.415 0"/><polyline class="cls-46" points="-49.583 205.487 4.761 172.771 74.995 146.13 110.093 159.765 156.39 133.902 206.854 138.976 264.398 88.685 310.797 93.246 331 67.724 351.89 74.421 388.821 53.083 418.927 50.049 465.78 0"/><polyline class="cls-19" points="-49.774 209.216 4.236 175.228 76.265 148.09 110.431 161.921 158.073 135.732 210.098 140.683 264.315 90.468 311.789 94.882 332.325 69.436 352.719 75.938 389.772 53.902 420.049 51.634 466.146 0"/><polyline class="cls-119" points="-49.965 212.944 3.712 177.686 77.535 150.05 110.768 164.078 159.756 137.561 213.341 142.39 264.233 92.251 312.78 96.517 333.651 71.148 353.548 77.456 390.724 54.72 421.171 53.22 466.512 0"/><polyline class="cls-40" points="-50.156 216.673 3.187 180.143 78.804 152.01 111.105 166.235 161.439 139.39 216.585 144.098 264.151 94.034 313.772 98.152 334.976 72.859 354.377 78.973 391.676 55.539 422.293 54.805 466.878 0"/><polyline class="cls-47" points="-50.346 220.401 2.663 182.6 80.074 153.971 111.442 168.392 163.122 141.22 219.829 145.805 264.069 95.818 314.763 99.788 336.301 74.571 355.205 80.491 392.628 56.358 423.415 56.39 467.244 0"/><polyline class="cls-64" points="-50.537 224.13 2.138 185.057 81.344 155.931 111.78 170.549 164.805 143.049 223.073 147.512 263.987 97.601 315.755 101.423 337.626 76.283 356.034 82.008 393.579 57.176 424.537 57.976 467.61 0"/><polyline class="cls-6" points="-50.728 227.859 1.613 187.514 82.614 157.891 112.117 172.706 166.488 144.878 226.317 149.22 263.904 99.384 316.746 103.058 338.951 77.994 356.863 83.526 394.531 57.995 425.659 59.561 467.976 0"/><polyline class="cls-65" points="-50.919 231.587 1.089 189.971 83.884 159.851 112.454 174.863 168.171 146.707 229.561 150.927 263.822 101.167 317.738 104.693 340.276 79.706 357.692 85.043 395.483 58.814 426.78 61.146 468.341 0"/><polyline class="cls-91" points="-51.11 235.316 .564 192.428 85.154 161.811 112.791 177.019 169.854 148.537 232.805 152.634 263.74 102.951 318.729 106.329 341.602 81.418 358.52 86.561 396.434 59.632 427.902 62.732 468.707 0"/><polyline class="cls-103" points="-51.301 239.045 .04 194.885 86.424 163.771 113.129 179.176 171.537 150.366 236.049 154.341 263.658 104.734 319.721 107.964 342.927 83.129 359.349 88.078 397.386 60.451 429.024 64.317 469.073 0"/><polyline class="cls-75" points="-51.492 242.773 -.485 197.342 87.694 165.731 113.466 181.333 173.22 152.195 239.293 156.049 263.576 106.517 320.712 109.599 344.252 84.841 360.178 89.596 398.338 61.269 430.146 65.902 469.439 0"/><polyline class="cls-107" points="-51.683 246.502 -1.009 199.799 88.964 167.692 113.803 183.49 174.902 154.024 242.537 157.756 263.493 108.3 321.704 111.234 345.577 86.553 361.007 91.113 399.29 62.088 431.268 67.488 469.805 0"/><polyline class="cls-99" points="-51.874 250.23 -1.534 202.256 90.234 169.652 114.14 185.647 176.585 155.854 245.78 159.463 263.411 110.084 322.696 112.87 346.902 88.264 361.835 92.631 400.241 62.907 432.39 69.073 470.171 0"/><polyline class="cls-96" points="-52.065 253.959 -2.058 204.713 91.504 171.612 114.477 187.804 178.268 157.683 249.024 161.171 263.329 111.867 323.687 114.505 348.227 89.976 362.664 94.148 401.193 63.725 433.512 70.659 470.537 0"/><polyline class="cls-9" points="-52.256 257.688 -2.583 207.171 92.774 173.572 114.815 189.961 179.951 159.512 252.268 162.878 263.247 113.65 324.679 116.14 349.553 91.688 363.493 95.666 402.145 64.544 434.634 72.244 470.902 0"/><polyline class="cls-85" points="-52.447 261.416 -3.107 209.628 94.044 175.532 115.152 192.117 181.634 161.341 255.512 164.585 263.164 115.433 325.67 117.776 350.878 93.399 364.322 97.183 403.097 65.363 435.756 73.829 471.268 0"/><polyline class="cls-44" points="-52.638 265.145 -3.632 212.085 95.314 177.492 115.489 194.274 183.317 163.171 258.756 166.293 263.082 117.217 326.662 119.411 352.203 95.111 365.15 98.701 404.048 66.181 436.878 75.415 471.634 0"/><polyline class="cls-110" points="-52.829 268.874 -4.157 214.542 96.584 179.452 115.826 196.431 185 165 262 168 263 119 327.653 121.046 353.528 96.823 365.979 100.219 405 67 438 77 472 0"/><polyline class="cls-70" points="-51.54 271.096 -2.638 216.75 19.918 209.372 62.499 194.363 90.317 185.301 98.153 182.783 117.423 199.826 122.795 197.548 186.312 167.898 257.148 169.209 262.896 169.433 265.189 121.68 295.166 122.635 329.745 123.064 355.679 98.773 368.077 101.847 406.048 68.162 425.377 73.514 438.371 77.101 450.256 50.354 472.195 0"/><polyline class="cls-5" points="-50.252 273.319 -1.12 218.959 21.467 212.048 64.087 196.848 91.917 188.409 99.723 186.114 119.019 203.221 124.376 201.114 187.624 170.795 258.03 170.641 263.793 170.865 267.378 124.36 297.429 125.323 331.836 125.081 357.831 100.724 370.176 103.476 407.096 69.324 425.901 74.012 438.741 77.203 450.696 50.469 472.39 0"/><polyline class="cls-101" points="-48.963 275.541 .399 221.168 23.015 214.724 65.675 199.334 93.517 191.517 101.292 189.444 120.615 206.616 125.956 204.68 188.936 173.693 258.913 172.073 264.689 172.298 269.567 127.039 299.693 128.011 333.928 127.099 359.982 102.674 372.274 105.105 408.145 70.486 426.425 74.509 439.112 77.304 451.136 50.583 472.585 0"/><polyline class="cls-26" points="-47.675 277.764 1.917 223.376 24.564 217.4 67.263 201.819 95.117 194.625 102.861 192.775 122.212 210.011 127.536 208.246 190.248 176.591 259.796 173.505 265.586 173.731 271.756 129.719 301.956 130.7 336.02 129.117 362.133 104.624 374.372 106.734 409.193 71.649 426.949 75.007 439.483 77.406 451.576 50.698 472.78 0"/><polyline class="cls-108" points="-46.386 279.987 3.436 225.585 26.113 220.076 68.85 204.304 96.716 197.733 104.431 196.105 123.808 213.406 129.116 211.812 191.56 179.489 260.679 174.937 266.482 175.164 273.945 132.399 304.219 133.388 338.111 131.135 364.285 106.575 376.47 108.363 410.241 72.811 427.474 75.505 439.854 77.507 452.016 50.813 472.976 0"/><polyline class="cls-24" points="-45.098 282.209 4.954 227.793 27.662 222.752 70.438 206.79 98.316 200.841 106 199.436 125.405 216.801 130.697 215.378 192.872 182.386 261.561 176.369 267.379 176.596 276.134 135.079 306.483 136.077 340.203 133.152 366.436 108.525 378.568 109.992 411.289 73.973 427.998 76.003 440.224 77.609 452.456 50.927 473.171 0"/><polyline class="cls-74" points="-43.809 284.432 6.472 230.002 29.21 225.428 72.026 209.275 99.916 203.949 107.57 202.766 127.001 220.196 132.277 218.944 194.184 185.284 262.444 177.801 268.275 178.029 278.323 137.758 308.746 138.765 342.294 135.17 368.587 110.476 380.666 111.62 412.338 75.135 428.522 76.501 440.595 77.71 452.896 51.042 473.366 0"/><polyline class="cls-94" points="-42.521 286.654 7.991 232.211 30.759 228.104 73.614 211.76 101.516 207.057 109.139 206.097 128.597 223.591 133.857 222.51 195.496 188.182 263.327 179.233 269.171 179.462 280.512 140.438 311.009 141.453 344.386 137.188 370.739 112.426 382.765 113.249 413.386 76.297 429.046 76.999 440.966 77.812 453.336 51.157 473.561 0"/><polyline class="cls-12" points="-41.232 288.877 9.509 234.419 32.308 230.78 75.202 214.246 103.116 210.165 110.709 209.427 130.194 226.986 135.437 226.076 196.808 191.079 264.21 180.666 270.068 180.894 282.701 143.118 313.273 144.142 346.478 139.205 372.89 114.376 384.863 114.878 414.434 77.459 429.57 77.496 441.337 77.913 453.775 51.271 473.756 0"/><polyline class="cls-59" points="-39.944 291.1 11.028 236.628 33.857 233.456 76.79 216.731 104.716 213.273 112.278 212.758 131.79 230.381 137.018 229.641 198.12 193.977 265.092 182.098 270.964 182.327 284.89 145.798 315.536 146.83 348.569 141.223 375.041 116.327 386.961 116.507 415.482 78.621 430.095 77.994 441.707 78.014 454.215 51.386 473.951 0"/><polyline class="cls-113" points="-38.655 293.322 12.546 238.836 35.406 236.132 78.378 219.216 106.316 216.381 113.847 216.088 133.386 233.776 138.598 233.207 199.432 196.875 265.975 183.53 271.861 183.76 287.079 148.477 317.799 149.518 350.661 143.241 377.192 118.277 389.059 118.136 416.531 79.783 430.619 78.492 442.078 78.116 454.655 51.501 474.146 0"/><polyline class="cls-36" points="-37.367 295.545 14.065 241.045 36.954 238.808 79.966 221.702 107.915 219.489 115.417 219.419 134.983 237.171 140.178 236.773 200.745 199.772 266.858 184.962 272.757 185.193 289.268 151.157 320.063 152.207 352.752 145.258 379.344 120.227 391.157 119.765 417.579 80.946 431.143 78.99 442.449 78.217 455.095 51.616 474.341 0"/><polyline class="cls-124" points="-36.078 297.767 15.583 243.254 38.503 241.485 81.553 224.187 109.515 222.597 116.986 222.75 136.579 240.566 141.758 240.339 202.057 202.67 267.741 186.394 273.654 186.625 291.457 153.837 322.326 154.895 354.844 147.276 381.495 122.178 393.256 121.394 418.627 82.108 431.667 79.488 442.82 78.319 455.535 51.73 474.537 0"/><polyline class="cls-78" points="-34.79 299.99 17.101 245.462 40.052 244.161 83.141 226.672 111.115 225.705 118.556 226.08 138.176 243.961 143.339 243.905 203.369 205.568 268.623 187.826 274.55 188.058 293.646 156.517 324.589 157.584 356.936 149.294 383.646 124.128 395.354 123.022 419.675 83.27 432.191 79.986 443.19 78.42 455.975 51.845 474.732 0"/><polyline class="cls-58" points="-33.501 302.213 18.62 247.671 41.601 246.837 84.729 229.157 112.715 228.813 120.125 229.411 139.772 247.356 144.919 247.471 204.681 208.466 269.506 189.258 275.446 189.491 295.835 159.197 326.853 160.272 359.027 151.311 385.798 126.079 397.452 124.651 420.723 84.432 432.716 80.483 443.561 78.522 456.415 51.96 474.927 0"/><polyline class="cls-123" points="-32.213 304.435 20.138 249.88 43.149 249.513 86.317 231.643 114.315 231.921 121.695 232.741 141.368 250.751 146.499 251.037 205.993 211.363 270.389 190.69 276.343 190.924 298.024 161.876 329.116 162.96 361.119 153.329 387.949 128.029 399.55 126.28 421.772 85.594 433.24 80.981 443.932 78.623 456.855 52.074 475.122 0"/><polyline class="cls-29" points="-30.924 306.658 21.657 252.088 44.698 252.189 87.905 234.128 115.915 235.029 123.264 236.072 142.965 254.146 148.079 254.603 207.305 214.261 271.272 192.122 277.239 192.356 300.213 164.556 331.379 165.649 363.21 155.347 390.1 129.979 401.648 127.909 422.82 86.756 433.764 81.479 444.303 78.724 457.294 52.189 475.317 0"/><polyline class="cls-16" points="-29.636 308.88 23.175 254.297 46.247 254.865 89.493 236.613 117.515 238.137 124.833 239.402 144.561 257.541 149.66 258.169 208.617 217.159 272.154 193.555 278.136 193.789 302.402 167.236 333.643 168.337 365.302 157.365 392.251 131.93 403.746 129.538 423.868 87.918 434.288 81.977 444.673 78.826 457.734 52.304 475.512 0"/><polyline class="cls-62" points="-28.347 311.103 24.693 256.505 47.796 257.541 91.081 239.099 119.114 241.245 126.403 242.733 146.157 260.936 151.24 261.735 209.929 220.056 273.037 194.987 279.032 195.222 304.591 169.916 335.906 171.026 367.394 159.382 394.403 133.88 405.845 131.167 424.916 89.08 434.812 82.475 445.044 78.927 458.174 52.418 475.707 0"/><polyline class="cls-53" points="-27.059 313.326 26.212 258.714 49.345 260.217 92.668 241.584 120.714 244.353 127.972 246.063 147.754 264.331 152.82 265.3 211.241 222.954 273.92 196.419 279.929 196.654 306.78 172.595 338.169 173.714 369.485 161.4 396.554 135.831 407.943 132.796 425.965 90.243 435.337 82.973 445.415 79.029 458.614 52.533 475.902 0"/><polyline class="cls-122" points="-25.77 315.548 27.73 260.923 50.893 262.893 94.256 244.069 122.314 247.462 129.542 249.394 149.35 267.726 154.4 268.866 212.553 225.852 274.802 197.851 280.825 198.087 308.969 175.275 340.433 176.402 371.577 163.418 398.705 137.781 410.041 134.424 427.013 91.405 435.861 83.47 445.786 79.13 459.054 52.648 476.098 0"/><polyline class="cls-50" points="-24.482 317.771 29.249 263.131 52.442 265.569 95.844 246.555 123.914 250.57 131.111 252.724 150.947 271.121 155.98 272.432 213.865 228.749 275.685 199.283 281.721 199.52 311.158 177.955 342.696 179.091 373.668 165.435 400.857 139.731 412.139 136.053 428.061 92.567 436.385 83.968 446.156 79.232 459.494 52.763 476.293 0"/><polyline class="cls-72" points="-23.193 319.993 30.767 265.34 53.991 268.245 97.432 249.04 125.514 253.678 132.68 256.055 152.543 274.516 157.561 275.998 215.177 231.647 276.568 200.715 282.618 200.953 313.347 180.635 344.96 181.779 375.76 167.453 403.008 141.682 414.237 137.682 429.109 93.729 436.909 84.466 446.527 79.333 459.934 52.877 476.488 0"/><polyline class="cls-100" points="-21.905 322.216 32.286 267.548 55.54 270.921 99.02 251.525 127.114 256.786 134.25 259.385 154.139 277.911 159.141 279.564 216.489 234.545 277.451 202.147 283.514 202.385 315.537 183.314 347.223 184.467 377.852 169.471 405.159 143.632 416.336 139.311 430.157 94.891 437.434 84.964 446.898 79.435 460.374 52.992 476.683 0"/><polyline class="cls-13" points="-20.616 324.438 33.804 269.757 57.088 273.597 100.608 254.011 128.714 259.894 135.819 262.716 155.736 281.306 160.721 283.13 217.801 237.443 278.333 203.579 284.411 203.818 317.726 185.994 349.486 187.156 379.943 171.488 407.311 145.583 418.434 140.94 431.206 96.053 437.958 85.462 447.269 79.536 460.813 53.107 476.878 0"/><polyline class="cls-67" points="-19.328 326.661 35.322 271.966 58.637 276.273 102.196 256.496 130.313 263.002 137.389 266.047 157.332 284.701 162.301 286.696 219.113 240.34 279.216 205.012 285.307 205.251 319.915 188.674 351.75 189.844 382.035 173.506 409.462 147.533 420.532 142.569 432.254 97.215 438.482 85.96 447.639 79.637 461.253 53.221 477.073 0"/><polyline class="cls-117" points="-18.039 328.884 36.841 274.174 60.186 278.949 103.783 258.981 131.913 266.11 138.958 269.377 158.929 288.096 163.882 290.262 220.425 243.238 280.099 206.444 286.204 206.683 322.104 191.354 354.013 192.533 384.126 175.524 411.613 149.483 422.63 144.197 433.302 98.377 439.006 86.457 448.01 79.739 461.693 53.336 477.268 0"/><polyline class="cls-55" points="-16.751 331.106 38.359 276.383 61.735 281.625 105.371 261.467 133.513 269.218 140.528 272.708 160.525 291.491 165.462 293.828 221.737 246.136 280.982 207.876 287.1 208.116 324.293 194.034 356.276 195.221 386.218 177.541 413.764 151.434 424.728 145.826 434.35 99.54 439.53 86.955 448.381 79.84 462.133 53.451 477.463 0"/><polyline class="cls-88" points="-15.462 333.329 39.878 278.592 63.284 284.301 106.959 263.952 135.113 272.326 142.097 276.038 162.121 294.886 167.042 297.393 223.049 249.033 281.864 209.308 287.996 209.549 326.482 196.713 358.54 197.909 388.31 179.559 415.916 153.384 426.826 147.455 435.399 100.702 440.055 87.453 448.752 79.942 462.573 53.566 477.659 0"/><polyline class="cls-61" points="-14.174 335.551 41.396 280.8 64.832 286.977 108.547 266.437 136.713 275.434 143.666 279.369 163.718 298.281 168.622 300.959 224.361 251.931 282.747 210.74 288.893 210.982 328.671 199.393 360.803 200.598 390.401 181.577 418.067 155.335 428.925 149.084 436.447 101.864 440.579 87.951 449.122 80.043 463.013 53.68 477.854 0"/><polyline class="cls-105" points="-12.885 337.774 42.915 283.009 66.381 289.653 110.135 268.923 138.313 278.542 145.236 282.699 165.314 301.676 170.203 304.525 225.673 254.829 283.63 212.172 289.789 212.414 330.86 202.073 363.066 203.286 392.493 183.595 420.218 157.285 431.023 150.713 437.495 103.026 441.103 88.449 449.493 80.145 463.453 53.795 478.049 0"/><polyline class="cls-48" points="-11.597 339.997 44.433 285.217 67.93 292.33 111.723 271.408 139.913 281.65 146.805 286.03 166.91 305.071 171.783 308.091 226.985 257.726 284.513 213.604 290.686 213.847 333.049 204.753 365.33 205.974 394.584 185.612 422.37 159.235 433.121 152.342 438.543 104.188 441.627 88.947 449.864 80.246 463.893 53.91 478.244 0"/><polyline class="cls-80" points="-10.308 342.219 45.951 287.426 69.479 295.006 113.311 273.893 141.512 284.758 148.375 289.36 168.507 308.466 173.363 311.657 228.297 260.624 285.395 215.036 291.582 215.28 335.238 207.432 367.593 208.663 396.676 187.63 424.521 161.186 435.219 153.971 439.592 105.35 442.151 89.444 450.235 80.348 464.332 54.024 478.439 0"/><polyline class="cls-109" points="-9.02 344.442 47.47 289.635 71.027 297.682 114.899 276.378 143.112 287.866 149.944 292.691 170.103 311.861 174.943 315.223 229.61 263.522 286.278 216.468 292.479 216.712 337.427 210.112 369.856 211.351 398.768 189.648 426.672 163.136 437.317 155.599 440.64 106.512 442.676 89.942 450.605 80.449 464.772 54.139 478.634 0"/><polyline class="cls-57" points="-7.731 346.664 48.988 291.843 72.576 300.358 116.486 278.864 144.712 290.974 151.513 296.021 171.7 315.256 176.524 318.789 230.922 266.42 287.161 217.901 293.375 218.145 339.616 212.792 372.12 214.04 400.859 191.665 428.823 165.086 439.416 157.228 441.688 107.674 443.2 90.44 450.976 80.55 465.212 54.254 478.829 0"/><polyline class="cls-95" points="-6.443 348.887 50.507 294.052 74.125 303.034 118.074 281.349 146.312 294.082 153.083 299.352 173.296 318.651 178.104 322.355 232.234 269.317 288.044 219.333 294.271 219.578 341.805 215.472 374.383 216.728 402.951 193.683 430.975 167.037 441.514 158.857 442.736 108.837 443.724 90.938 451.347 80.652 465.652 54.368 479.024 0"/><polyline class="cls-33" points="-5.154 351.11 52.025 296.26 75.674 305.71 119.662 283.834 147.912 297.19 154.652 302.683 174.892 322.046 179.684 325.921 233.546 272.215 288.926 220.765 295.168 221.011 343.994 218.152 376.646 219.416 405.042 195.701 433.126 168.987 443.612 160.486 443.784 109.999 444.248 91.436 451.718 80.753 466.092 54.483 479.22 0"/><polyline class="cls-35" points="-3.866 353.332 53.543 298.469 77.223 308.386 121.25 286.32 149.512 300.298 156.222 306.013 176.489 325.441 181.264 329.486 234.858 275.113 289.809 222.197 296.064 222.443 346.183 220.831 378.91 222.105 407.134 197.718 435.277 170.938 445.71 162.115 444.833 111.161 444.772 91.934 452.088 80.855 466.532 54.598 479.415 0"/><polyline class="cls-45" points="-2.577 355.555 55.062 300.678 78.771 311.062 122.838 288.805 151.112 303.406 157.791 309.344 178.085 328.836 182.844 333.052 236.17 278.01 290.692 223.629 296.961 223.876 348.372 223.511 381.173 224.793 409.226 199.736 437.429 172.888 447.808 163.744 445.881 112.323 445.297 92.431 452.459 80.956 466.972 54.713 479.61 0"/><polyline class="cls-69" points="-1.289 357.777 56.58 302.886 80.32 313.738 124.426 291.29 152.712 306.514 159.361 312.674 179.681 332.231 184.425 336.618 237.482 280.908 291.575 225.061 297.857 225.309 350.561 226.191 383.436 227.481 411.317 201.754 439.58 174.838 449.906 165.373 446.929 113.485 445.821 92.929 452.83 81.058 467.412 54.827 479.805 0"/><polyline class="cls-39" points="0 360 58.099 305.095 81.869 316.414 126.014 293.776 154.311 309.622 186.005 340.184 292.457 226.493 385.7 230.17 452.005 167.001 446.345 93.427 467.851 54.942 480 0"/></g></g></svg>
